<svg width="90" height="90" viewBox="0 0 90 90" fill="none" xmlns="http://www.w3.org/2000/svg">
<rect x="0.5" y="0.5" width="89" height="89" rx="14.5" fill="#519CD0" fill-opacity="0.8"/>
<rect x="0.5" y="0.5" width="89" height="89" rx="14.5" stroke="white"/>
<path d="M10.6185 80.126C10.3785 80.126 10.1925 80.06 10.0605 79.928C9.94045 79.784 9.88045 79.592 9.88045 79.352V67.94C9.88045 67.688 9.94045 67.502 10.0605 67.382C10.1925 67.25 10.3785 67.184 10.6185 67.184C10.8585 67.184 11.0385 67.25 11.1585 67.382C11.2905 67.502 11.3565 67.688 11.3565 67.94V72.962H13.8405L13.4085 73.25L17.1525 67.58C17.2605 67.412 17.3865 67.304 17.5305 67.256C17.6745 67.196 17.8185 67.184 17.9625 67.22C18.1065 67.244 18.2265 67.31 18.3225 67.418C18.4185 67.514 18.4725 67.64 18.4845 67.796C18.5085 67.94 18.4665 68.096 18.3585 68.264L14.8485 73.502L14.2905 73.016C15.0225 73.1 15.6465 73.358 16.1625 73.79C16.6785 74.222 17.1285 74.822 17.5125 75.59L19.2225 79.082C19.3185 79.274 19.3485 79.448 19.3125 79.604C19.2765 79.748 19.1985 79.862 19.0785 79.946C18.9585 80.03 18.8205 80.078 18.6645 80.09C18.5205 80.114 18.3765 80.09 18.2325 80.018C18.0885 79.946 17.9745 79.82 17.8905 79.64L16.2885 76.274C15.9285 75.542 15.5205 75.02 15.0645 74.708C14.6205 74.396 14.0685 74.24 13.4085 74.24H11.3565V79.352C11.3565 79.592 11.2965 79.784 11.1765 79.928C11.0565 80.06 10.8705 80.126 10.6185 80.126ZM20.8253 80.126C20.6333 80.126 20.4773 80.084 20.3573 80C20.2493 79.904 20.1833 79.784 20.1593 79.64C20.1473 79.484 20.1833 79.31 20.2673 79.118L25.2173 67.85C25.3253 67.61 25.4513 67.442 25.5953 67.346C25.7513 67.238 25.9193 67.184 26.0993 67.184C26.2793 67.184 26.4413 67.238 26.5853 67.346C26.7413 67.442 26.8673 67.61 26.9633 67.85L31.9313 79.118C32.0273 79.31 32.0633 79.484 32.0393 79.64C32.0273 79.796 31.9673 79.916 31.8593 80C31.7513 80.084 31.6013 80.126 31.4093 80.126C31.1933 80.126 31.0193 80.072 30.8873 79.964C30.7553 79.844 30.6473 79.676 30.5633 79.46L29.2313 76.382L29.9513 76.76H22.2113L22.9493 76.382L21.6353 79.46C21.5273 79.688 21.4133 79.856 21.2933 79.964C21.1733 80.072 21.0173 80.126 20.8253 80.126ZM26.0813 69.038L23.1833 75.86L22.7513 75.518H29.4113L29.0153 75.86L26.1173 69.038H26.0813ZM34.9286 80.126C34.7126 80.126 34.5446 80.066 34.4246 79.946C34.3046 79.814 34.2446 79.634 34.2446 79.406V67.904C34.2446 67.664 34.3046 67.484 34.4246 67.364C34.5446 67.244 34.7126 67.184 34.9286 67.184C35.1206 67.184 35.2706 67.226 35.3786 67.31C35.4986 67.382 35.6066 67.508 35.7026 67.688L40.6346 76.976H40.0946L45.0086 67.688C45.1046 67.508 45.2066 67.382 45.3146 67.31C45.4226 67.226 45.5786 67.184 45.7826 67.184C45.9866 67.184 46.1486 67.244 46.2686 67.364C46.3886 67.484 46.4486 67.664 46.4486 67.904V79.406C46.4486 79.634 46.3886 79.814 46.2686 79.946C46.1606 80.066 45.9926 80.126 45.7646 80.126C45.5486 80.126 45.3806 80.066 45.2606 79.946C45.1406 79.814 45.0806 79.634 45.0806 79.406V69.29H45.5126L41.0126 77.732C40.9286 77.888 40.8386 78.002 40.7426 78.074C40.6586 78.134 40.5326 78.164 40.3646 78.164C40.1966 78.164 40.0646 78.128 39.9686 78.056C39.8726 77.984 39.7886 77.876 39.7166 77.732L35.1626 69.272H35.5946V79.406C35.5946 79.634 35.5346 79.814 35.4146 79.946C35.3066 80.066 35.1446 80.126 34.9286 80.126ZM50.417 80C50.153 80 49.949 79.934 49.805 79.802C49.673 79.658 49.607 79.454 49.607 79.19V68.12C49.607 67.856 49.673 67.658 49.805 67.526C49.949 67.382 50.153 67.31 50.417 67.31H57.113C57.317 67.31 57.473 67.364 57.581 67.472C57.689 67.58 57.743 67.73 57.743 67.922C57.743 68.126 57.689 68.282 57.581 68.39C57.473 68.498 57.317 68.552 57.113 68.552H51.047V72.944H56.735C56.939 72.944 57.095 72.998 57.203 73.106C57.311 73.202 57.365 73.352 57.365 73.556C57.365 73.76 57.311 73.916 57.203 74.024C57.095 74.132 56.939 74.186 56.735 74.186H51.047V78.758H57.113C57.317 78.758 57.473 78.812 57.581 78.92C57.689 79.028 57.743 79.178 57.743 79.37C57.743 79.574 57.689 79.73 57.581 79.838C57.473 79.946 57.317 80 57.113 80H50.417ZM60.8392 80.126C60.5992 80.126 60.4132 80.06 60.2812 79.928C60.1612 79.784 60.1012 79.592 60.1012 79.352V68.066C60.1012 67.814 60.1672 67.628 60.2992 67.508C60.4312 67.376 60.6172 67.31 60.8572 67.31H65.1232C66.4792 67.31 67.5232 67.646 68.2552 68.318C68.9872 68.978 69.3532 69.914 69.3532 71.126C69.3532 72.326 68.9872 73.262 68.2552 73.934C67.5232 74.606 66.4792 74.942 65.1232 74.942H61.5772V79.352C61.5772 79.592 61.5172 79.784 61.3972 79.928C61.2772 80.06 61.0912 80.126 60.8392 80.126ZM61.5772 73.7H64.9432C65.9152 73.7 66.6472 73.484 67.1392 73.052C67.6432 72.608 67.8952 71.966 67.8952 71.126C67.8952 70.274 67.6432 69.632 67.1392 69.2C66.6472 68.756 65.9152 68.534 64.9432 68.534H61.5772V73.7ZM69.8683 80.126C69.6763 80.126 69.5203 80.084 69.4003 80C69.2923 79.904 69.2263 79.784 69.2023 79.64C69.1903 79.484 69.2263 79.31 69.3103 79.118L74.2603 67.85C74.3683 67.61 74.4943 67.442 74.6383 67.346C74.7943 67.238 74.9623 67.184 75.1423 67.184C75.3223 67.184 75.4843 67.238 75.6283 67.346C75.7843 67.442 75.9103 67.61 76.0063 67.85L80.9743 79.118C81.0703 79.31 81.1063 79.484 81.0823 79.64C81.0703 79.796 81.0103 79.916 80.9023 80C80.7943 80.084 80.6443 80.126 80.4523 80.126C80.2363 80.126 80.0623 80.072 79.9303 79.964C79.7983 79.844 79.6903 79.676 79.6063 79.46L78.2743 76.382L78.9943 76.76H71.2543L71.9923 76.382L70.6783 79.46C70.5703 79.688 70.4563 79.856 70.3363 79.964C70.2163 80.072 70.0603 80.126 69.8683 80.126ZM75.1243 69.038L72.2263 75.86L71.7943 75.518H78.4543L78.0583 75.86L75.1603 69.038H75.1243Z" fill="white"/>
<path d="M72.5 50.5C72.5 51.8261 71.9732 53.0979 71.0355 54.0355C70.0979 54.9732 68.8261 55.5 67.5 55.5H22.5C21.1739 55.5 19.9021 54.9732 18.9645 54.0355C18.0268 53.0979 17.5 51.8261 17.5 50.5V23C17.5 21.6739 18.0268 20.4021 18.9645 19.4645C19.9021 18.5268 21.1739 18 22.5 18H32.5L37.5 10.5H52.5L57.5 18H67.5C68.8261 18 70.0979 18.5268 71.0355 19.4645C71.9732 20.4021 72.5 21.6739 72.5 23V50.5Z" stroke="white" stroke-width="2" stroke-linecap="round" stroke-linejoin="round"/>
<path d="M45 45.5C50.5228 45.5 55 41.0228 55 35.5C55 29.9772 50.5228 25.5 45 25.5C39.4772 25.5 35 29.9772 35 35.5C35 41.0228 39.4772 45.5 45 45.5Z" stroke="white" stroke-width="2" stroke-linecap="round" stroke-linejoin="round"/>
</svg>
