<svg width="90" height="90" viewBox="0 0 90 90" fill="none" xmlns="http://www.w3.org/2000/svg">
<rect x="0.5" y="0.5" width="89" height="89" rx="14.5" fill="#519CD0" fill-opacity="0.8"/>
<rect x="0.5" y="0.5" width="89" height="89" rx="14.5" stroke="white"/>
<path d="M62.5 10.5H27.5C24.7386 10.5 22.5 12.7386 22.5 15.5V50.5C22.5 53.2614 24.7386 55.5 27.5 55.5H62.5C65.2614 55.5 67.5 53.2614 67.5 50.5V15.5C67.5 12.7386 65.2614 10.5 62.5 10.5Z" stroke="white" stroke-width="2" stroke-linecap="round" stroke-linejoin="round"/>
<path d="M36.25 28C38.3211 28 40 26.3211 40 24.25C40 22.1789 38.3211 20.5 36.25 20.5C34.1789 20.5 32.5 22.1789 32.5 24.25C32.5 26.3211 34.1789 28 36.25 28Z" stroke="white" stroke-width="2" stroke-linecap="round" stroke-linejoin="round"/>
<path d="M67.5 40.5L55 28L27.5 55.5" stroke="white" stroke-width="2" stroke-linecap="round" stroke-linejoin="round"/>
<path d="M7.78838 80.126C7.54838 80.126 7.36238 80.06 7.23038 79.928C7.11038 79.784 7.05038 79.592 7.05038 79.352V68.084C7.05038 67.832 7.11638 67.64 7.24838 67.508C7.38038 67.376 7.57238 67.31 7.82438 67.31H14.4304C14.6584 67.31 14.8264 67.364 14.9344 67.472C15.0544 67.58 15.1144 67.742 15.1144 67.958C15.1144 68.15 15.0544 68.306 14.9344 68.426C14.8264 68.534 14.6584 68.588 14.4304 68.588H8.52638V79.352C8.52638 79.592 8.46638 79.784 8.34638 79.928C8.22638 80.06 8.04038 80.126 7.78838 80.126ZM14.919 80.126C14.727 80.126 14.571 80.084 14.451 80C14.343 79.904 14.277 79.784 14.253 79.64C14.241 79.484 14.277 79.31 14.361 79.118L19.311 67.85C19.419 67.61 19.545 67.442 19.689 67.346C19.845 67.238 20.013 67.184 20.193 67.184C20.373 67.184 20.535 67.238 20.679 67.346C20.835 67.442 20.961 67.61 21.057 67.85L26.025 79.118C26.121 79.31 26.157 79.484 26.133 79.64C26.121 79.796 26.061 79.916 25.953 80C25.845 80.084 25.695 80.126 25.503 80.126C25.287 80.126 25.113 80.072 24.981 79.964C24.849 79.844 24.741 79.676 24.657 79.46L23.325 76.382L24.045 76.76H16.305L17.043 76.382L15.729 79.46C15.621 79.688 15.507 79.856 15.387 79.964C15.267 80.072 15.111 80.126 14.919 80.126ZM20.175 69.038L17.277 75.86L16.845 75.518H23.505L23.109 75.86L20.211 69.038H20.175ZM37.7703 80.126C37.5303 80.126 37.3443 80.06 37.2123 79.928C37.0803 79.784 37.0143 79.592 37.0143 79.352V68.588H31.4703V71.504C31.4703 72.716 31.3983 73.784 31.2543 74.708C31.1223 75.62 30.9183 76.418 30.6423 77.102C30.3783 77.774 30.0423 78.344 29.6343 78.812C29.2383 79.28 28.7763 79.676 28.2483 80C28.0563 80.132 27.8703 80.18 27.6903 80.144C27.5103 80.108 27.3603 79.994 27.2403 79.802C27.1203 79.61 27.0843 79.43 27.1323 79.262C27.1923 79.094 27.3183 78.95 27.5103 78.83C27.9183 78.578 28.2783 78.26 28.5903 77.876C28.9143 77.492 29.1843 77.012 29.4003 76.436C29.6283 75.848 29.8023 75.122 29.9223 74.258C30.0423 73.394 30.1023 72.35 30.1023 71.126V68.12C30.1023 67.856 30.1683 67.658 30.3003 67.526C30.4443 67.382 30.6483 67.31 30.9123 67.31H37.6983C37.9503 67.31 38.1483 67.382 38.2923 67.526C38.4363 67.658 38.5083 67.856 38.5083 68.12V79.352C38.5083 79.592 38.4423 79.784 38.3103 79.928C38.1783 80.06 37.9983 80.126 37.7703 80.126ZM42.4541 80C42.1901 80 41.9861 79.934 41.8421 79.802C41.7101 79.658 41.6441 79.454 41.6441 79.19V68.12C41.6441 67.856 41.7101 67.658 41.8421 67.526C41.9861 67.382 42.1901 67.31 42.4541 67.31H49.1501C49.3541 67.31 49.5101 67.364 49.6181 67.472C49.7261 67.58 49.7801 67.73 49.7801 67.922C49.7801 68.126 49.7261 68.282 49.6181 68.39C49.5101 68.498 49.3541 68.552 49.1501 68.552H43.0841V72.944H48.7721C48.9761 72.944 49.1321 72.998 49.2401 73.106C49.3481 73.202 49.4021 73.352 49.4021 73.556C49.4021 73.76 49.3481 73.916 49.2401 74.024C49.1321 74.132 48.9761 74.186 48.7721 74.186H43.0841V78.758H49.1501C49.3541 78.758 49.5101 78.812 49.6181 78.92C49.7261 79.028 49.7801 79.178 49.7801 79.37C49.7801 79.574 49.7261 79.73 49.6181 79.838C49.5101 79.946 49.3541 80 49.1501 80H42.4541ZM52.8763 80.126C52.6363 80.126 52.4503 80.06 52.3183 79.928C52.1983 79.784 52.1383 79.592 52.1383 79.352V68.066C52.1383 67.814 52.2043 67.628 52.3363 67.508C52.4683 67.376 52.6543 67.31 52.8943 67.31H57.1603C58.5163 67.31 59.5603 67.646 60.2923 68.318C61.0243 68.978 61.3903 69.914 61.3903 71.126C61.3903 72.326 61.0243 73.262 60.2923 73.934C59.5603 74.606 58.5163 74.942 57.1603 74.942H53.6143V79.352C53.6143 79.592 53.5543 79.784 53.4343 79.928C53.3143 80.06 53.1283 80.126 52.8763 80.126ZM53.6143 73.7H56.9803C57.9523 73.7 58.6843 73.484 59.1763 73.052C59.6803 72.608 59.9323 71.966 59.9323 71.126C59.9323 70.274 59.6803 69.632 59.1763 69.2C58.6843 68.756 57.9523 68.534 56.9803 68.534H53.6143V73.7ZM64.3389 80C64.0749 80 63.8709 79.934 63.7269 79.802C63.5949 79.658 63.5289 79.454 63.5289 79.19V68.12C63.5289 67.856 63.5949 67.658 63.7269 67.526C63.8709 67.382 64.0749 67.31 64.3389 67.31H71.0349C71.2389 67.31 71.3949 67.364 71.5029 67.472C71.6109 67.58 71.6649 67.73 71.6649 67.922C71.6649 68.126 71.6109 68.282 71.5029 68.39C71.3949 68.498 71.2389 68.552 71.0349 68.552H64.9689V72.944H70.6569C70.8609 72.944 71.0169 72.998 71.1249 73.106C71.2329 73.202 71.2869 73.352 71.2869 73.556C71.2869 73.76 71.2329 73.916 71.1249 74.024C71.0169 74.132 70.8609 74.186 70.6569 74.186H64.9689V78.758H71.0349C71.2389 78.758 71.3949 78.812 71.5029 78.92C71.6109 79.028 71.6649 79.178 71.6649 79.37C71.6649 79.574 71.6109 79.73 71.5029 79.838C71.3949 79.946 71.2389 80 71.0349 80H64.3389ZM82.213 80.126C81.973 80.126 81.787 80.06 81.655 79.928C81.535 79.784 81.475 79.592 81.475 79.352V74.636H79.351C78.967 74.636 78.631 74.672 78.343 74.744C78.067 74.816 77.815 74.948 77.587 75.14C77.371 75.32 77.173 75.584 76.993 75.932L74.977 79.658C74.881 79.838 74.755 79.964 74.599 80.036C74.443 80.108 74.293 80.132 74.149 80.108C74.005 80.084 73.879 80.024 73.771 79.928C73.663 79.82 73.597 79.688 73.573 79.532C73.549 79.376 73.591 79.196 73.699 78.992L75.391 75.86C75.667 75.344 75.979 74.966 76.327 74.726C76.687 74.474 77.101 74.348 77.569 74.348H78.037L77.929 74.582C76.597 74.582 75.559 74.264 74.815 73.628C74.071 72.992 73.699 72.11 73.699 70.982C73.699 70.19 73.861 69.524 74.185 68.984C74.509 68.444 74.989 68.03 75.625 67.742C76.261 67.454 77.029 67.31 77.929 67.31H82.141C82.405 67.31 82.603 67.382 82.735 67.526C82.879 67.658 82.951 67.856 82.951 68.12V79.352C82.951 79.592 82.885 79.784 82.753 79.928C82.633 80.06 82.453 80.126 82.213 80.126ZM78.145 73.466H81.475V68.534H78.145C77.161 68.534 76.417 68.744 75.913 69.164C75.409 69.572 75.157 70.178 75.157 70.982C75.157 71.81 75.409 72.434 75.913 72.854C76.417 73.262 77.161 73.466 78.145 73.466Z" fill="white"/>
</svg>
