<svg width="24" height="24" viewBox="0 0 24 24" fill="none" xmlns="http://www.w3.org/2000/svg">
<rect width="24" height="24" rx="12" fill="#DFECF2"/>
<path d="M7.84995 16.4C7.84995 17.115 8.43495 17.7 9.14995 17.7H14.35C15.065 17.7 15.65 17.115 15.65 16.4V9.9C15.65 9.185 15.065 8.6 14.35 8.6H9.14995C8.43495 8.6 7.84995 9.185 7.84995 9.9V16.4ZM15.65 6.65H14.025L13.5635 6.1885C13.4465 6.0715 13.2775 6 13.1085 6H10.3915C10.2225 6 10.0535 6.0715 9.93645 6.1885L9.47495 6.65H7.84995C7.49245 6.65 7.19995 6.9425 7.19995 7.3C7.19995 7.6575 7.49245 7.95 7.84995 7.95H15.65C16.0075 7.95 16.3 7.6575 16.3 7.3C16.3 6.9425 16.0075 6.65 15.65 6.65Z" fill="#4698CE"/>
</svg>
