<svg width="90" height="90" viewBox="0 0 90 90" fill="none" xmlns="http://www.w3.org/2000/svg">
<rect x="0.5" y="0.5" width="89" height="89" rx="14.5" fill="#519CD0" fill-opacity="0.8"/>
<rect x="0.5" y="0.5" width="89" height="89" rx="14.5" stroke="white"/>
<path d="M62.5 22.5H27.5C24.7386 22.5 22.5 24.7386 22.5 27.5V62.5C22.5 65.2614 24.7386 67.5 27.5 67.5H62.5C65.2614 67.5 67.5 65.2614 67.5 62.5V27.5C67.5 24.7386 65.2614 22.5 62.5 22.5Z" stroke="white" stroke-width="2" stroke-linecap="round" stroke-linejoin="round"/>
<path d="M36.25 40C38.3211 40 40 38.3211 40 36.25C40 34.1789 38.3211 32.5 36.25 32.5C34.1789 32.5 32.5 34.1789 32.5 36.25C32.5 38.3211 34.1789 40 36.25 40Z" stroke="white" stroke-width="2" stroke-linecap="round" stroke-linejoin="round"/>
<path d="M67.5 52.5L55 40L27.5 67.5" stroke="white" stroke-width="2" stroke-linecap="round" stroke-linejoin="round"/>
</svg>
