<svg width="126" height="58" viewBox="0 0 126 58" fill="none" xmlns="http://www.w3.org/2000/svg">
<rect width="126" height="58" rx="29" fill="#666666" fill-opacity="0.2"/>
<rect x="1" y="1" width="124" height="56" rx="28" stroke="white" stroke-opacity="0.2" stroke-width="2"/>
<path d="M42.792 33.598C42.6053 33.598 42.4607 33.5467 42.358 33.444C42.2647 33.332 42.218 33.1827 42.218 32.996V24.134C42.218 23.938 42.2647 23.7887 42.358 23.686C42.4607 23.5833 42.6053 23.532 42.792 23.532C42.9787 23.532 43.1187 23.5833 43.212 23.686C43.3147 23.7887 43.366 23.938 43.366 24.134V32.996C43.366 33.1827 43.3193 33.332 43.226 33.444C43.1327 33.5467 42.988 33.598 42.792 33.598ZM48.6137 33.626C47.9324 33.626 47.3444 33.4767 46.8497 33.178C46.355 32.8793 45.9724 32.464 45.7017 31.932C45.4404 31.3907 45.3097 30.7653 45.3097 30.056C45.3097 29.5147 45.3844 29.0293 45.5337 28.6C45.683 28.1707 45.9024 27.8067 46.1917 27.508C46.481 27.2 46.8264 26.9667 47.2277 26.808C47.6384 26.6493 48.1004 26.57 48.6137 26.57C48.9497 26.57 49.2997 26.6213 49.6637 26.724C50.0277 26.8267 50.359 27.004 50.6577 27.256C50.751 27.3213 50.8117 27.4007 50.8397 27.494C50.8677 27.5873 50.8677 27.6807 50.8397 27.774C50.8117 27.858 50.765 27.9327 50.6997 27.998C50.6344 28.054 50.5504 28.0867 50.4477 28.096C50.3544 28.1053 50.2564 28.0727 50.1537 27.998C49.911 27.8113 49.6637 27.6807 49.4117 27.606C49.1597 27.5313 48.917 27.494 48.6837 27.494C48.3197 27.494 48.0024 27.5547 47.7317 27.676C47.461 27.788 47.2324 27.9513 47.0457 28.166C46.859 28.3807 46.7144 28.6467 46.6117 28.964C46.5184 29.2813 46.4717 29.65 46.4717 30.07C46.4717 30.882 46.663 31.526 47.0457 32.002C47.4284 32.4687 47.9744 32.702 48.6837 32.702C48.917 32.702 49.155 32.6647 49.3977 32.59C49.6497 32.5153 49.9017 32.3847 50.1537 32.198C50.2564 32.1233 50.3544 32.0907 50.4477 32.1C50.541 32.1093 50.6204 32.1467 50.6857 32.212C50.751 32.268 50.793 32.3427 50.8117 32.436C50.8397 32.5293 50.8397 32.6227 50.8117 32.716C50.7837 32.8 50.723 32.8747 50.6297 32.94C50.331 33.1827 50.0044 33.36 49.6497 33.472C49.295 33.5747 48.9497 33.626 48.6137 33.626ZM54.3209 33.598C54.1436 33.598 54.0036 33.5467 53.9009 33.444C53.7982 33.3413 53.7469 33.1967 53.7469 33.01V27.606H51.7029C51.3482 27.606 51.1709 27.452 51.1709 27.144C51.1709 27.004 51.2176 26.8967 51.3109 26.822C51.4042 26.738 51.5349 26.696 51.7029 26.696H56.9389C57.2842 26.696 57.4569 26.8453 57.4569 27.144C57.4569 27.2933 57.4102 27.41 57.3169 27.494C57.2329 27.5687 57.1069 27.606 56.9389 27.606H54.8809V33.01C54.8809 33.1967 54.8342 33.3413 54.7409 33.444C54.6569 33.5467 54.5169 33.598 54.3209 33.598ZM61.3683 33.626C60.7056 33.626 60.1316 33.4813 59.6463 33.192C59.1609 32.9027 58.7829 32.4967 58.5123 31.974C58.2509 31.442 58.1203 30.8167 58.1203 30.098C58.1203 29.5567 58.1949 29.0713 58.3443 28.642C58.4936 28.2033 58.7129 27.83 59.0023 27.522C59.2916 27.214 59.6323 26.9807 60.0243 26.822C60.4256 26.654 60.8736 26.57 61.3683 26.57C62.0309 26.57 62.6049 26.7147 63.0903 27.004C63.5756 27.2933 63.9489 27.704 64.2103 28.236C64.4809 28.7587 64.6163 29.3793 64.6163 30.098C64.6163 30.6393 64.5416 31.1247 64.3923 31.554C64.2429 31.9833 64.0236 32.3567 63.7343 32.674C63.4449 32.982 63.0996 33.22 62.6983 33.388C62.3063 33.5467 61.8629 33.626 61.3683 33.626ZM61.3683 32.716C61.7883 32.716 62.1569 32.6133 62.4743 32.408C62.7916 32.2027 63.0343 31.904 63.2023 31.512C63.3796 31.12 63.4683 30.6487 63.4683 30.098C63.4683 29.2487 63.2769 28.6 62.8943 28.152C62.5209 27.704 62.0123 27.48 61.3683 27.48C60.9389 27.48 60.5656 27.5827 60.2483 27.788C59.9403 27.984 59.6976 28.278 59.5203 28.67C59.3523 29.0527 59.2683 29.5287 59.2683 30.098C59.2683 30.938 59.4596 31.5867 59.8423 32.044C60.2249 32.492 60.7336 32.716 61.3683 32.716ZM67.0299 36.118C66.8433 36.118 66.7033 36.0667 66.6099 35.964C66.5166 35.8707 66.4699 35.7307 66.4699 35.544V27.172C66.4699 26.9853 66.5166 26.8453 66.6099 26.752C66.7033 26.6493 66.8386 26.598 67.0159 26.598C67.2026 26.598 67.3426 26.6493 67.4359 26.752C67.5386 26.8453 67.5899 26.9853 67.5899 27.172V28.502L67.4359 28.306C67.5853 27.774 67.8793 27.354 68.3179 27.046C68.7659 26.7287 69.2979 26.57 69.9139 26.57C70.5206 26.57 71.0479 26.7147 71.4959 27.004C71.9533 27.284 72.3033 27.69 72.5459 28.222C72.7979 28.7447 72.9239 29.37 72.9239 30.098C72.9239 30.8167 72.7979 31.442 72.5459 31.974C72.3033 32.4967 71.9579 32.9027 71.5099 33.192C71.0619 33.4813 70.5299 33.626 69.9139 33.626C69.2979 33.626 68.7706 33.472 68.3319 33.164C67.8933 32.8467 67.5946 32.4267 67.4359 31.904H67.6039V35.544C67.6039 35.7307 67.5526 35.8707 67.4499 35.964C67.3473 36.0667 67.2073 36.118 67.0299 36.118ZM69.6759 32.716C70.1053 32.716 70.4739 32.6133 70.7819 32.408C71.0993 32.2027 71.3419 31.904 71.5099 31.512C71.6873 31.12 71.7759 30.6487 71.7759 30.098C71.7759 29.2487 71.5846 28.6 71.2019 28.152C70.8286 27.704 70.3199 27.48 69.6759 27.48C69.2559 27.48 68.8873 27.5827 68.5699 27.788C68.2526 27.984 68.0053 28.278 67.8279 28.67C67.6599 29.0527 67.5759 29.5287 67.5759 30.098C67.5759 30.938 67.7673 31.5867 68.1499 32.044C68.5326 32.492 69.0413 32.716 69.6759 32.716ZM75.3288 33.57C75.1421 33.57 75.0021 33.5187 74.9088 33.416C74.8154 33.304 74.7688 33.15 74.7688 32.954V27.228C74.7688 27.032 74.8154 26.8827 74.9088 26.78C75.0021 26.6773 75.1421 26.626 75.3288 26.626C75.5061 26.626 75.6461 26.6773 75.7488 26.78C75.8514 26.8827 75.9028 27.032 75.9028 27.228V32.954C75.9028 33.15 75.8514 33.304 75.7488 33.416C75.6554 33.5187 75.5154 33.57 75.3288 33.57ZM75.3288 25.058C75.0954 25.058 74.9134 24.9973 74.7828 24.876C74.6521 24.7453 74.5868 24.5727 74.5868 24.358C74.5868 24.134 74.6521 23.966 74.7828 23.854C74.9134 23.7327 75.0954 23.672 75.3288 23.672C75.5714 23.672 75.7534 23.7327 75.8748 23.854C76.0054 23.966 76.0708 24.134 76.0708 24.358C76.0708 24.5727 76.0054 24.7453 75.8748 24.876C75.7534 24.9973 75.5714 25.058 75.3288 25.058ZM82.9194 33.598C82.7421 33.598 82.6067 33.5513 82.5134 33.458C82.4201 33.3553 82.3734 33.22 82.3734 33.052V30.91H81.3794C81.0154 30.91 80.7027 31.0033 80.4414 31.19C80.1801 31.3767 79.9701 31.6053 79.8114 31.876L79.0134 33.276C78.9294 33.416 78.8314 33.5093 78.7194 33.556C78.6074 33.6027 78.4954 33.612 78.3834 33.584C78.2714 33.556 78.1734 33.5 78.0894 33.416C78.0054 33.332 77.9541 33.234 77.9354 33.122C77.9167 33.0007 77.9447 32.8747 78.0194 32.744L78.6914 31.61C78.8501 31.33 79.0601 31.0967 79.3214 30.91C79.5827 30.7233 79.8487 30.63 80.1194 30.63H80.3014V30.756C79.5361 30.756 78.9434 30.5787 78.5234 30.224C78.1034 29.8693 77.8934 29.3747 77.8934 28.74C77.8934 28.32 77.9821 27.9607 78.1594 27.662C78.3461 27.354 78.6261 27.116 78.9994 26.948C79.3727 26.78 79.8347 26.696 80.3854 26.696H82.8494C83.0454 26.696 83.1947 26.7473 83.2974 26.85C83.4001 26.9527 83.4514 27.0973 83.4514 27.284V33.052C83.4514 33.22 83.4001 33.3553 83.2974 33.458C83.2041 33.5513 83.0781 33.598 82.9194 33.598ZM80.5954 30.084H82.3734V27.494H80.5954C80.0447 27.494 79.6387 27.6107 79.3774 27.844C79.1161 28.068 78.9854 28.3807 78.9854 28.782C78.9854 29.1927 79.1161 29.5147 79.3774 29.748C79.6387 29.972 80.0447 30.084 80.5954 30.084Z" fill="white"/>
</svg>
