<svg width="126" height="58" viewBox="0 0 126 58" fill="none" xmlns="http://www.w3.org/2000/svg">
<rect width="126" height="58" rx="29" fill="#666666" fill-opacity="0.2"/>
<rect x="1" y="1" width="124" height="56" rx="28" stroke="white" stroke-opacity="0.2" stroke-width="2"/>
<path d="M38.8034 27.126C37.8887 27.126 37.0907 26.9207 36.4094 26.51C35.7374 26.09 35.2147 25.502 34.8414 24.746C34.4774 23.99 34.2954 23.094 34.2954 22.058C34.2954 21.274 34.3981 20.574 34.6034 19.958C34.8181 19.3327 35.1214 18.8053 35.5134 18.376C35.9054 17.9373 36.3767 17.6013 36.9274 17.368C37.4874 17.1253 38.1127 17.004 38.8034 17.004C39.7367 17.004 40.5394 17.2093 41.2114 17.62C41.8927 18.0307 42.4154 18.614 42.7794 19.37C43.1527 20.1167 43.3394 21.008 43.3394 22.044C43.3394 22.828 43.2321 23.5327 43.0174 24.158C42.8027 24.7833 42.4994 25.3153 42.1074 25.754C41.7154 26.1927 41.2394 26.5333 40.6794 26.776C40.1287 27.0093 39.5034 27.126 38.8034 27.126ZM38.8034 26.104C39.5127 26.104 40.1101 25.9453 40.5954 25.628C41.0901 25.3107 41.4681 24.8487 41.7294 24.242C41.9907 23.6353 42.1214 22.9073 42.1214 22.058C42.1214 20.7793 41.8321 19.79 41.2534 19.09C40.6841 18.3807 39.8674 18.026 38.8034 18.026C38.1127 18.026 37.5201 18.1847 37.0254 18.502C36.5401 18.8193 36.1667 19.2813 35.9054 19.888C35.6441 20.4853 35.5134 21.2087 35.5134 22.058C35.5134 23.3273 35.8027 24.3213 36.3814 25.04C36.9601 25.7493 37.7674 26.104 38.8034 26.104ZM48.1918 27.126C47.5105 27.126 46.9225 26.9767 46.4278 26.678C45.9332 26.3793 45.5505 25.964 45.2798 25.432C45.0185 24.8907 44.8878 24.2653 44.8878 23.556C44.8878 23.0147 44.9625 22.5293 45.1118 22.1C45.2612 21.6707 45.4805 21.3067 45.7698 21.008C46.0592 20.7 46.4045 20.4667 46.8058 20.308C47.2165 20.1493 47.6785 20.07 48.1918 20.07C48.5278 20.07 48.8778 20.1213 49.2418 20.224C49.6058 20.3267 49.9372 20.504 50.2358 20.756C50.3292 20.8213 50.3898 20.9007 50.4178 20.994C50.4458 21.0873 50.4458 21.1807 50.4178 21.274C50.3898 21.358 50.3432 21.4327 50.2778 21.498C50.2125 21.554 50.1285 21.5867 50.0258 21.596C49.9325 21.6053 49.8345 21.5727 49.7318 21.498C49.4892 21.3113 49.2418 21.1807 48.9898 21.106C48.7378 21.0313 48.4952 20.994 48.2618 20.994C47.8978 20.994 47.5805 21.0547 47.3098 21.176C47.0392 21.288 46.8105 21.4513 46.6238 21.666C46.4372 21.8807 46.2925 22.1467 46.1898 22.464C46.0965 22.7813 46.0498 23.15 46.0498 23.57C46.0498 24.382 46.2412 25.026 46.6238 25.502C47.0065 25.9687 47.5525 26.202 48.2618 26.202C48.4952 26.202 48.7332 26.1647 48.9758 26.09C49.2278 26.0153 49.4798 25.8847 49.7318 25.698C49.8345 25.6233 49.9325 25.5907 50.0258 25.6C50.1192 25.6093 50.1985 25.6467 50.2638 25.712C50.3292 25.768 50.3712 25.8427 50.3898 25.936C50.4178 26.0293 50.4178 26.1227 50.3898 26.216C50.3618 26.3 50.3012 26.3747 50.2078 26.44C49.9092 26.6827 49.5825 26.86 49.2278 26.972C48.8732 27.0747 48.5278 27.126 48.1918 27.126ZM53.899 27.098C53.7217 27.098 53.5817 27.0467 53.479 26.944C53.3763 26.8413 53.325 26.6967 53.325 26.51V21.106H51.281C50.9263 21.106 50.749 20.952 50.749 20.644C50.749 20.504 50.7957 20.3967 50.889 20.322C50.9823 20.238 51.113 20.196 51.281 20.196H56.517C56.8623 20.196 57.035 20.3453 57.035 20.644C57.035 20.7933 56.9883 20.91 56.895 20.994C56.811 21.0687 56.685 21.106 56.517 21.106H54.459V26.51C54.459 26.6967 54.4123 26.8413 54.319 26.944C54.235 27.0467 54.095 27.098 53.899 27.098ZM60.2877 27.126C59.8211 27.126 59.4011 27.0373 59.0277 26.86C58.6637 26.6733 58.3744 26.4213 58.1597 26.104C57.9451 25.7867 57.8377 25.432 57.8377 25.04C57.8377 24.536 57.9637 24.1393 58.2157 23.85C58.4771 23.5607 58.9017 23.3553 59.4897 23.234C60.0871 23.1127 60.8991 23.052 61.9257 23.052H62.5557V23.794H61.9397C61.1837 23.794 60.5864 23.8313 60.1477 23.906C59.7184 23.9713 59.4151 24.088 59.2377 24.256C59.0697 24.424 58.9857 24.662 58.9857 24.97C58.9857 25.3527 59.1164 25.6653 59.3777 25.908C59.6484 26.1507 60.0124 26.272 60.4697 26.272C60.8431 26.272 61.1697 26.1833 61.4497 26.006C61.7391 25.8287 61.9631 25.586 62.1217 25.278C62.2897 24.97 62.3737 24.6153 62.3737 24.214V22.618C62.3737 22.0393 62.2571 21.624 62.0237 21.372C61.7904 21.1107 61.4077 20.98 60.8757 20.98C60.5491 20.98 60.2224 21.022 59.8957 21.106C59.5691 21.19 59.2237 21.3253 58.8597 21.512C58.7291 21.5773 58.6171 21.6007 58.5237 21.582C58.4304 21.554 58.3557 21.5027 58.2997 21.428C58.2437 21.3533 58.2111 21.2693 58.2017 21.176C58.1924 21.0733 58.2111 20.9753 58.2577 20.882C58.3137 20.7887 58.3977 20.714 58.5097 20.658C58.9204 20.4527 59.3264 20.3033 59.7277 20.21C60.1291 20.1167 60.5117 20.07 60.8757 20.07C61.4637 20.07 61.9491 20.168 62.3317 20.364C62.7144 20.5507 62.9991 20.84 63.1857 21.232C63.3724 21.6147 63.4657 22.1093 63.4657 22.716V26.51C63.4657 26.6967 63.4191 26.8413 63.3257 26.944C63.2417 27.0467 63.1157 27.098 62.9477 27.098C62.7704 27.098 62.6351 27.0467 62.5417 26.944C62.4484 26.8413 62.4017 26.6967 62.4017 26.51V25.418H62.5277C62.4531 25.7727 62.3084 26.076 62.0937 26.328C61.8884 26.58 61.6317 26.776 61.3237 26.916C61.0157 27.056 60.6704 27.126 60.2877 27.126ZM66.2526 27.098C66.0659 27.098 65.9213 27.0467 65.8186 26.944C65.7253 26.8413 65.6786 26.6967 65.6786 26.51V20.672C65.6786 20.476 65.7253 20.3313 65.8186 20.238C65.9213 20.1447 66.0659 20.098 66.2526 20.098C66.4299 20.098 66.5653 20.1447 66.6586 20.238C66.7613 20.3313 66.8126 20.476 66.8126 20.672V23.024H70.5226V20.672C70.5226 20.476 70.5693 20.3313 70.6626 20.238C70.7653 20.1447 70.9053 20.098 71.0826 20.098C71.2599 20.098 71.3999 20.1447 71.5026 20.238C71.6053 20.3313 71.6566 20.476 71.6566 20.672V26.51C71.6566 26.6967 71.6053 26.8413 71.5026 26.944C71.3999 27.0467 71.2599 27.098 71.0826 27.098C70.9053 27.098 70.7653 27.0467 70.6626 26.944C70.5693 26.8413 70.5226 26.6967 70.5226 26.51V23.948H66.8126V26.51C66.8126 26.6967 66.7659 26.8413 66.6726 26.944C66.5793 27.0467 66.4393 27.098 66.2526 27.098ZM74.4694 27.098C74.2827 27.098 74.1381 27.0467 74.0354 26.944C73.9421 26.8413 73.8954 26.6967 73.8954 26.51V20.672C73.8954 20.476 73.9421 20.3313 74.0354 20.238C74.1381 20.1447 74.2827 20.098 74.4694 20.098C74.6467 20.098 74.7821 20.1447 74.8754 20.238C74.9781 20.3313 75.0294 20.476 75.0294 20.672V23.024H78.7394V20.672C78.7394 20.476 78.7861 20.3313 78.8794 20.238C78.9821 20.1447 79.1221 20.098 79.2994 20.098C79.4767 20.098 79.6167 20.1447 79.7194 20.238C79.8221 20.3313 79.8734 20.476 79.8734 20.672V26.51C79.8734 26.6967 79.8221 26.8413 79.7194 26.944C79.6167 27.0467 79.4767 27.098 79.2994 27.098C79.1221 27.098 78.9821 27.0467 78.8794 26.944C78.7861 26.8413 78.7394 26.6967 78.7394 26.51V23.948H75.0294V26.51C75.0294 26.6967 74.9827 26.8413 74.8894 26.944C74.7961 27.0467 74.6561 27.098 74.4694 27.098ZM82.6862 27.07C82.4995 27.07 82.3595 27.0187 82.2662 26.916C82.1729 26.804 82.1262 26.65 82.1262 26.454V20.728C82.1262 20.532 82.1729 20.3827 82.2662 20.28C82.3595 20.1773 82.4995 20.126 82.6862 20.126C82.8635 20.126 83.0035 20.1773 83.1062 20.28C83.2089 20.3827 83.2602 20.532 83.2602 20.728V26.454C83.2602 26.65 83.2089 26.804 83.1062 26.916C83.0129 27.0187 82.8729 27.07 82.6862 27.07ZM82.6862 18.558C82.4529 18.558 82.2709 18.4973 82.1402 18.376C82.0095 18.2453 81.9442 18.0727 81.9442 17.858C81.9442 17.634 82.0095 17.466 82.1402 17.354C82.2709 17.2327 82.4529 17.172 82.6862 17.172C82.9289 17.172 83.1109 17.2327 83.2322 17.354C83.3629 17.466 83.4282 17.634 83.4282 17.858C83.4282 18.0727 83.3629 18.2453 83.2322 18.376C83.1109 18.4973 82.9289 18.558 82.6862 18.558ZM86.0208 27.098C85.9181 27.098 85.8248 27.0747 85.7408 27.028C85.6661 26.9907 85.6055 26.9253 85.5588 26.832C85.5215 26.7387 85.5028 26.622 85.5028 26.482V20.658C85.5028 20.4713 85.5495 20.3313 85.6428 20.238C85.7361 20.1447 85.8621 20.098 86.0208 20.098C86.1888 20.098 86.3148 20.1447 86.3988 20.238C86.4921 20.3313 86.5388 20.4713 86.5388 20.658V25.922H86.1888L90.2628 20.462C90.3375 20.3593 90.4261 20.2753 90.5288 20.21C90.6315 20.1353 90.7621 20.098 90.9208 20.098C91.0328 20.098 91.1261 20.1167 91.2008 20.154C91.2755 20.1913 91.3315 20.2567 91.3688 20.35C91.4155 20.434 91.4388 20.5507 91.4388 20.7V26.538C91.4388 26.7153 91.3921 26.8553 91.2988 26.958C91.2148 27.0513 91.0888 27.098 90.9208 27.098C90.7528 27.098 90.6221 27.0513 90.5288 26.958C90.4448 26.8553 90.4028 26.7153 90.4028 26.538V21.26H90.7528L86.6648 26.734C86.5995 26.8273 86.5155 26.9113 86.4128 26.986C86.3195 27.0607 86.1888 27.098 86.0208 27.098ZM88.4708 19.314C87.9761 19.314 87.5188 19.188 87.0988 18.936C86.6881 18.684 86.3801 18.3013 86.1748 17.788C86.1281 17.648 86.1235 17.536 86.1608 17.452C86.1981 17.3587 86.2681 17.2933 86.3708 17.256C86.4735 17.2187 86.5668 17.2233 86.6508 17.27C86.7348 17.3073 86.8048 17.3913 86.8608 17.522C87.0288 17.8767 87.2435 18.1473 87.5048 18.334C87.7755 18.5113 88.0975 18.6 88.4708 18.6C88.8535 18.6 89.1755 18.5113 89.4368 18.334C89.6981 18.1473 89.9128 17.8767 90.0808 17.522C90.1461 17.3913 90.2208 17.3073 90.3048 17.27C90.3888 17.2233 90.4775 17.2187 90.5708 17.256C90.6828 17.2933 90.7528 17.3587 90.7808 17.452C90.8181 17.536 90.8088 17.648 90.7528 17.788C90.5381 18.3013 90.2255 18.684 89.8148 18.936C89.4135 19.188 88.9655 19.314 88.4708 19.314ZM32.237 43.618C32.0503 43.618 31.9103 43.5667 31.817 43.464C31.7236 43.3707 31.677 43.2307 31.677 43.044V34.672C31.677 34.4853 31.7236 34.3453 31.817 34.252C31.9103 34.1493 32.0456 34.098 32.223 34.098C32.4096 34.098 32.5496 34.1493 32.643 34.252C32.7456 34.3453 32.797 34.4853 32.797 34.672V36.002L32.643 35.806C32.7923 35.274 33.0863 34.854 33.525 34.546C33.973 34.2287 34.505 34.07 35.121 34.07C35.7276 34.07 36.255 34.2147 36.703 34.504C37.1603 34.784 37.5103 35.19 37.753 35.722C38.005 36.2447 38.131 36.87 38.131 37.598C38.131 38.3167 38.005 38.942 37.753 39.474C37.5103 39.9967 37.165 40.4027 36.717 40.692C36.269 40.9813 35.737 41.126 35.121 41.126C34.505 41.126 33.9776 40.972 33.539 40.664C33.1003 40.3467 32.8016 39.9267 32.643 39.404H32.811V43.044C32.811 43.2307 32.7596 43.3707 32.657 43.464C32.5543 43.5667 32.4143 43.618 32.237 43.618ZM34.883 40.216C35.3123 40.216 35.681 40.1133 35.989 39.908C36.3063 39.7027 36.549 39.404 36.717 39.012C36.8943 38.62 36.983 38.1487 36.983 37.598C36.983 36.7487 36.7916 36.1 36.409 35.652C36.0356 35.204 35.527 34.98 34.883 34.98C34.463 34.98 34.0943 35.0827 33.777 35.288C33.4596 35.484 33.2123 35.778 33.035 36.17C32.867 36.5527 32.783 37.0287 32.783 37.598C32.783 38.438 32.9743 39.0867 33.357 39.544C33.7396 39.992 34.2483 40.216 34.883 40.216ZM43.0418 41.126C42.3231 41.126 41.7025 40.986 41.1798 40.706C40.6665 40.4167 40.2651 40.0107 39.9758 39.488C39.6958 38.9653 39.5558 38.34 39.5558 37.612C39.5558 36.9027 39.6958 36.2867 39.9758 35.764C40.2558 35.232 40.6385 34.8167 41.1238 34.518C41.6185 34.2193 42.1878 34.07 42.8318 34.07C43.2891 34.07 43.6998 34.1493 44.0638 34.308C44.4278 34.4573 44.7358 34.6767 44.9878 34.966C45.2491 35.2553 45.4451 35.6053 45.5758 36.016C45.7158 36.4267 45.7858 36.8887 45.7858 37.402C45.7858 37.5513 45.7438 37.6633 45.6598 37.738C45.5758 37.8033 45.4545 37.836 45.2958 37.836H40.4238V37.094H45.0298L44.8058 37.276C44.8058 36.772 44.7311 36.3473 44.5818 36.002C44.4325 35.6473 44.2131 35.3767 43.9238 35.19C43.6438 35.0033 43.2891 34.91 42.8598 34.91C42.3838 34.91 41.9778 35.022 41.6418 35.246C41.3151 35.4607 41.0678 35.764 40.8998 36.156C40.7318 36.5387 40.6478 36.9867 40.6478 37.5V37.584C40.6478 38.4427 40.8531 39.096 41.2638 39.544C41.6838 39.992 42.2765 40.216 43.0418 40.216C43.3591 40.216 43.6718 40.174 43.9798 40.09C44.2971 40.006 44.6051 39.866 44.9038 39.67C45.0345 39.586 45.1511 39.5487 45.2538 39.558C45.3658 39.558 45.4545 39.5907 45.5198 39.656C45.5851 39.712 45.6271 39.7867 45.6458 39.88C45.6738 39.964 45.6645 40.0573 45.6178 40.16C45.5805 40.2627 45.5011 40.3513 45.3798 40.426C45.0718 40.65 44.7078 40.8227 44.2878 40.944C43.8678 41.0653 43.4525 41.126 43.0418 41.126ZM49.8037 41.126C49.3184 41.126 48.847 41.07 48.3897 40.958C47.9324 40.846 47.5404 40.6827 47.2137 40.468C47.1017 40.3933 47.0224 40.3093 46.9757 40.216C46.9384 40.1227 46.9244 40.0293 46.9337 39.936C46.943 39.8427 46.9757 39.7633 47.0317 39.698C47.097 39.6327 47.181 39.5953 47.2837 39.586C47.3957 39.5673 47.5124 39.6 47.6337 39.684C47.9324 39.8707 48.2684 40.0107 48.6417 40.104C49.0244 40.1973 49.4024 40.244 49.7757 40.244C50.457 40.244 50.9424 40.146 51.2317 39.95C51.521 39.7447 51.6657 39.4553 51.6657 39.082C51.6657 38.718 51.5397 38.4427 51.2877 38.256C51.045 38.0693 50.6997 37.976 50.2517 37.976H49.0337C48.8844 37.976 48.763 37.9387 48.6697 37.864C48.5857 37.78 48.5437 37.6727 48.5437 37.542C48.5437 37.4113 48.5857 37.3087 48.6697 37.234C48.763 37.1593 48.8844 37.122 49.0337 37.122H50.1117C50.513 37.122 50.8304 37.0287 51.0637 36.842C51.3064 36.6553 51.4277 36.3987 51.4277 36.072C51.4277 35.7267 51.3017 35.456 51.0497 35.26C50.7977 35.0547 50.373 34.952 49.7757 34.952C49.4117 34.952 49.0617 34.994 48.7257 35.078C48.3897 35.1527 48.0677 35.2787 47.7597 35.456C47.5917 35.54 47.4517 35.568 47.3397 35.54C47.2277 35.5027 47.1437 35.4327 47.0877 35.33C47.0317 35.2273 47.0224 35.1153 47.0597 34.994C47.097 34.8727 47.1857 34.7747 47.3257 34.7C47.6897 34.4853 48.091 34.3267 48.5297 34.224C48.9684 34.1213 49.4304 34.07 49.9157 34.07C50.7744 34.07 51.4184 34.238 51.8477 34.574C52.2864 34.91 52.5057 35.3813 52.5057 35.988C52.5057 36.4173 52.3564 36.7813 52.0577 37.08C51.759 37.3787 51.3624 37.556 50.8677 37.612V37.43C51.437 37.4487 51.8897 37.612 52.2257 37.92C52.571 38.2187 52.7437 38.62 52.7437 39.124C52.7437 39.7307 52.4964 40.216 52.0017 40.58C51.507 40.944 50.7744 41.126 49.8037 41.126ZM56.0347 43.618C55.8947 43.618 55.7827 43.5807 55.6987 43.506C55.6147 43.4313 55.5633 43.3287 55.5447 43.198C55.5353 43.0767 55.5587 42.9507 55.6147 42.82L56.5807 40.65V41.14L53.8927 34.896C53.8367 34.756 53.818 34.6253 53.8367 34.504C53.8553 34.3827 53.9113 34.2847 54.0047 34.21C54.098 34.1353 54.2287 34.098 54.3967 34.098C54.546 34.098 54.6627 34.1307 54.7467 34.196C54.8307 34.2613 54.9053 34.378 54.9707 34.546L57.2667 40.174H56.8887L59.2127 34.546C59.2873 34.378 59.3667 34.2613 59.4507 34.196C59.5347 34.1307 59.656 34.098 59.8147 34.098C59.964 34.098 60.076 34.1353 60.1507 34.21C60.2347 34.2847 60.2813 34.3827 60.2907 34.504C60.3093 34.616 60.2907 34.742 60.2347 34.882L56.6507 43.17C56.576 43.338 56.492 43.4547 56.3987 43.52C56.3147 43.5853 56.1933 43.618 56.0347 43.618ZM66.6486 41.098C66.4713 41.098 66.3313 41.0467 66.2286 40.944C66.1353 40.8413 66.0886 40.6967 66.0886 40.51V35.106H63.3446V35.974C63.3446 36.702 63.3073 37.346 63.2326 37.906C63.1673 38.4567 63.06 38.9327 62.9106 39.334C62.7613 39.7353 62.5606 40.0713 62.3086 40.342C62.066 40.6127 61.7626 40.8413 61.3986 41.028C61.2773 41.084 61.1606 41.098 61.0486 41.07C60.9366 41.0513 60.8433 41.0093 60.7686 40.944C60.7033 40.8693 60.6566 40.7807 60.6286 40.678C60.61 40.5753 60.624 40.4727 60.6706 40.37C60.7173 40.2673 60.8013 40.1833 60.9226 40.118C61.1933 39.9687 61.4126 39.782 61.5806 39.558C61.758 39.334 61.898 39.054 62.0006 38.718C62.1033 38.382 62.1733 37.99 62.2106 37.542C62.2573 37.0847 62.2806 36.548 62.2806 35.932V34.84C62.2806 34.6253 62.3366 34.4667 62.4486 34.364C62.5606 34.252 62.7193 34.196 62.9246 34.196H66.5786C66.784 34.196 66.9426 34.252 67.0546 34.364C67.1666 34.4667 67.2226 34.6253 67.2226 34.84V40.51C67.2226 40.6967 67.1713 40.8413 67.0686 40.944C66.9753 41.0467 66.8353 41.098 66.6486 41.098ZM70.0537 41C69.867 41 69.7224 40.9487 69.6197 40.846C69.517 40.7433 69.4657 40.5987 69.4657 40.412V34.672C69.4657 34.476 69.5124 34.3313 69.6057 34.238C69.7084 34.1447 69.853 34.098 70.0397 34.098C70.217 34.098 70.3524 34.1447 70.4457 34.238C70.5484 34.3313 70.5997 34.476 70.5997 34.672V36.618H72.6577C73.5257 36.618 74.1837 36.8093 74.6317 37.192C75.0797 37.5653 75.3037 38.0973 75.3037 38.788C75.3037 39.2453 75.1964 39.642 74.9817 39.978C74.7764 40.3047 74.4777 40.5567 74.0857 40.734C73.703 40.9113 73.227 41 72.6577 41H70.0537ZM70.5997 40.188H72.5457C73.0777 40.188 73.4884 40.076 73.7777 39.852C74.067 39.6187 74.2117 39.2687 74.2117 38.802C74.2117 38.326 74.067 37.9807 73.7777 37.766C73.4884 37.542 73.0777 37.43 72.5457 37.43H70.5997V40.188ZM78.5768 41.098C78.3994 41.098 78.2594 41.0467 78.1568 40.944C78.0541 40.8413 78.0028 40.6967 78.0028 40.51V35.106H75.9588C75.6041 35.106 75.4267 34.952 75.4267 34.644C75.4267 34.504 75.4734 34.3967 75.5668 34.322C75.6601 34.238 75.7908 34.196 75.9588 34.196H81.1948C81.5401 34.196 81.7128 34.3453 81.7128 34.644C81.7128 34.7933 81.6661 34.91 81.5728 34.994C81.4888 35.0687 81.3628 35.106 81.1948 35.106H79.1368V40.51C79.1368 40.6967 79.0901 40.8413 78.9968 40.944C78.9128 41.0467 78.7728 41.098 78.5768 41.098ZM84.9655 41.126C84.4988 41.126 84.0788 41.0373 83.7055 40.86C83.3415 40.6733 83.0521 40.4213 82.8375 40.104C82.6228 39.7867 82.5155 39.432 82.5155 39.04C82.5155 38.536 82.6415 38.1393 82.8935 37.85C83.1548 37.5607 83.5795 37.3553 84.1675 37.234C84.7648 37.1127 85.5768 37.052 86.6035 37.052H87.2335V37.794H86.6175C85.8615 37.794 85.2641 37.8313 84.8255 37.906C84.3961 37.9713 84.0928 38.088 83.9155 38.256C83.7475 38.424 83.6635 38.662 83.6635 38.97C83.6635 39.3527 83.7941 39.6653 84.0555 39.908C84.3261 40.1507 84.6901 40.272 85.1475 40.272C85.5208 40.272 85.8475 40.1833 86.1275 40.006C86.4168 39.8287 86.6408 39.586 86.7995 39.278C86.9675 38.97 87.0515 38.6153 87.0515 38.214V36.618C87.0515 36.0393 86.9348 35.624 86.7015 35.372C86.4681 35.1107 86.0855 34.98 85.5535 34.98C85.2268 34.98 84.9001 35.022 84.5735 35.106C84.2468 35.19 83.9015 35.3253 83.5375 35.512C83.4068 35.5773 83.2948 35.6007 83.2015 35.582C83.1081 35.554 83.0335 35.5027 82.9775 35.428C82.9215 35.3533 82.8888 35.2693 82.8795 35.176C82.8701 35.0733 82.8888 34.9753 82.9355 34.882C82.9915 34.7887 83.0755 34.714 83.1875 34.658C83.5981 34.4527 84.0041 34.3033 84.4055 34.21C84.8068 34.1167 85.1895 34.07 85.5535 34.07C86.1415 34.07 86.6268 34.168 87.0095 34.364C87.3921 34.5507 87.6768 34.84 87.8635 35.232C88.0501 35.6147 88.1435 36.1093 88.1435 36.716V40.51C88.1435 40.6967 88.0968 40.8413 88.0035 40.944C87.9195 41.0467 87.7935 41.098 87.6255 41.098C87.4481 41.098 87.3128 41.0467 87.2195 40.944C87.1261 40.8413 87.0795 40.6967 87.0795 40.51V39.418H87.2055C87.1308 39.7727 86.9861 40.076 86.7715 40.328C86.5661 40.58 86.3095 40.776 86.0015 40.916C85.6935 41.056 85.3481 41.126 84.9655 41.126ZM92.3443 41.098C92.167 41.098 92.027 41.0467 91.9243 40.944C91.8217 40.8413 91.7703 40.6967 91.7703 40.51V35.106H89.7263C89.3717 35.106 89.1943 34.952 89.1943 34.644C89.1943 34.504 89.241 34.3967 89.3343 34.322C89.4277 34.238 89.5583 34.196 89.7263 34.196H94.9623C95.3077 34.196 95.4803 34.3453 95.4803 34.644C95.4803 34.7933 95.4337 34.91 95.3403 34.994C95.2563 35.0687 95.1303 35.106 94.9623 35.106H92.9043V40.51C92.9043 40.6967 92.8577 40.8413 92.7643 40.944C92.6803 41.0467 92.5403 41.098 92.3443 41.098Z" fill="white"/>
</svg>
