<svg width="38" height="38" viewBox="0 0 38 38" fill="none" xmlns="http://www.w3.org/2000/svg">
<path d="M4.75 11.0833V7.91667C4.75 7.07681 5.08363 6.27136 5.6775 5.6775C6.27136 5.08363 7.07681 4.75 7.91667 4.75H11.0833M26.9167 4.75H30.0833C30.9232 4.75 31.7286 5.08363 32.3225 5.6775C32.9164 6.27136 33.25 7.07681 33.25 7.91667V11.0833M33.25 26.9167V30.0833C33.25 30.9232 32.9164 31.7286 32.3225 32.3225C31.7286 32.9164 30.9232 33.25 30.0833 33.25H26.9167M11.0833 33.25H7.91667C7.07681 33.25 6.27136 32.9164 5.6775 32.3225C5.08363 31.7286 4.75 30.9232 4.75 30.0833V26.9167" stroke="white" stroke-opacity="0.7" stroke-width="2" stroke-linecap="round" stroke-linejoin="round"/>
</svg>
