<svg width="58" height="58" viewBox="0 0 58 58" fill="none" xmlns="http://www.w3.org/2000/svg">
<circle cx="29" cy="29" r="29" fill="#519CD0"/>
<circle cx="29" cy="29" r="28" stroke="white" stroke-opacity="0.2" stroke-width="2"/>
<path d="M14.75 21.0833V17.9167C14.75 17.0768 15.0836 16.2714 15.6775 15.6775C16.2714 15.0836 17.0768 14.75 17.9167 14.75H21.0833M36.9167 14.75H40.0833C40.9232 14.75 41.7286 15.0836 42.3225 15.6775C42.9164 16.2714 43.25 17.0768 43.25 17.9167V21.0833M43.25 36.9167V40.0833C43.25 40.9232 42.9164 41.7286 42.3225 42.3225C41.7286 42.9164 40.9232 43.25 40.0833 43.25H36.9167M21.0833 43.25H17.9167C17.0768 43.25 16.2714 42.9164 15.6775 42.3225C15.0836 41.7286 14.75 40.9232 14.75 40.0833V36.9167" stroke="white" stroke-width="2" stroke-linecap="round" stroke-linejoin="round"/>
</svg>
